inDegrees=yes
name=ik_coleta1_trike_mov
DataType=double
version=3
OpenSimVersion=4.4-2022-07-23-0e9fedc
endheader
time	pelvis_tilt	pelvis_tx	pelvis_ty	hip_flexion_r	knee_angle_r	ankle_angle_r	hip_flexion_l	knee_angle_l	ankle_angle_l	lumbar_extension	gearToGround_coord_0	rightPedalToGear_coord_0	leftPedalToGear_coord_0
16.00256299972534	81.93823226109403	-0.7	0.0500000000000003	66.43823226109404	-75.60022626043082	-1.039076492892845e-12	80.38799999999991	-84.66000000000004	5.05043721578303e-13	2.071017320375504e-12	0	-114.0000000000003	-139.067795130823
16.00956273078918	81.94111977570441	-0.7	0.0500000000000003	66.44111977570442	-75.59721521309055	-1.039076492892845e-12	80.38799999999991	-84.66000000000004	5.05043721578303e-13	2.071017320375504e-12	0	-114.0000000000003	-139.067795130823
16.01259279251099	81.91778273934396	-0.7	0.0500000000000003	66.41778273934396	-75.54694995610603	-1.039076492892845e-12	80.38799999999991	-84.66000000000004	5.05043721578303e-13	2.071017320375504e-12	0	-114.0000000000003	-139.067795130823
16.02257895469666	81.91521989619328	-0.7	0.0500000000000003	66.41521989619329	-75.4891754458955	-1.039076492892845e-12	80.38799999999991	-84.66000000000004	5.05043721578303e-13	2.071017320375504e-12	0	-114.0000000000003	-139.067795130823
16.02656412124634	81.90762656116458	-0.7	0.0500000000000003	66.40762656116459	-75.48150692783219	-1.039076492892845e-12	80.38799999999991	-84.66000000000004	5.05043721578303e-13	2.071017320375504e-12	0	-114.0000000000003	-139.067795130823
16.04058790206909	81.90208682915357	-0.7	0.0500000000000003	66.40208682915359	-75.43602001848669	-1.039076492892845e-12	80.38799999999991	-84.66000000000004	5.05043721578303e-13	2.071017320375504e-12	0	-114.0000000000003	-139.067795130823
16.04457998275757	81.87584068567163	-0.7	0.0500000000000003	66.37584068567165	-75.37948765847653	-1.039076492892845e-12	80.38799999999991	-84.66000000000004	5.05043721578303e-13	2.071017320375504e-12	0	-114.0000000000003	-139.067795130823
16.05056095123291	81.88106589221536	-0.7	0.0500000000000003	66.38106589221537	-75.37283373848675	-1.039076492892845e-12	80.38799999999991	-84.66000000000004	5.05043721578303e-13	2.071017320375504e-12	0	-114.0000000000003	-139.067795130823
16.05956292152405	81.85758830912765	-0.7	0.0500000000000003	66.35758830912766	-75.31607117232713	-1.039076492892845e-12	80.38799999999991	-84.66000000000004	5.05043721578303e-13	2.071017320375504e-12	0	-114.0000000000003	-139.067795130823
16.06558108329773	81.86306200124011	-0.7	0.0500000000000003	66.36306200124011	-75.3093842872842	-1.039076492892845e-12	80.38799999999991	-84.66000000000004	5.05043721578303e-13	2.071017320375504e-12	0	-114.0000000000003	-139.067795130823
16.07357382774353	81.85564641438668	-0.7	0.0500000000000003	66.35564641438668	-75.26008743627568	-1.039076492892845e-12	80.38799999999991	-84.66000000000004	5.05043721578303e-13	2.071017320375504e-12	0	-114.0000000000003	-139.067795130823
16.0795738697052	81.86210343212697	-0.7	0.0500000000000003	66.36210343212699	-75.25338103553985	-1.039076492892845e-12	80.38799999999991	-84.66000000000004	5.05043721578303e-13	2.071017320375504e-12	0	-114.0000000000003	-139.067795130823
16.08758807182312	81.8554509482768	-0.7	0.0500000000000003	66.35545094827681	-75.19216105250456	-1.039076492892845e-12	80.38799999999991	-84.66000000000004	5.05043721578303e-13	2.071017320375504e-12	0	-114.0000000000003	-139.067795130823
16.09355807304382	81.86471426929261	-0.7	0.0500000000000003	66.36471426929261	-75.18274536311233	-1.039076492892845e-12	80.38799999999991	-84.66000000000004	5.05043721578303e-13	2.071017320375504e-12	0	-114.0000000000003	-139.067795130823
16.11958503723145	81.85514414721254	-0.7	0.0500000000000003	66.35514414721256	-75.08052596852295	-1.039076492892845e-12	80.38799999999991	-84.66000000000004	5.05043721578303e-13	2.071017320375504e-12	0	-114.0000000000003	-139.067795130823
16.12457394599915	81.86510199558514	-0.7	0.0500000000000003	66.36510199558514	-75.07056802465854	-1.039076492892845e-12	80.38799999999991	-84.66000000000004	5.05043721578303e-13	2.071017320375504e-12	0	-114.0000000000003	-139.067795130823
16.13957715034485	81.85570037661893	-0.7	0.0500000000000003	66.35570037661894	-75.01094484929517	-1.039076492892845e-12	80.38799999999991	-84.66000000000004	5.05043721578303e-13	2.071017320375504e-12	0	-114.0000000000003	-139.067795130823
16.14957904815674	81.85514403062952	-0.7	0.0500000000000003	66.35514403062953	-74.89398371134189	-1.039076492892845e-12	80.38799999999991	-84.66000000000004	5.05043721578303e-13	2.071017320375504e-12	0	-114.0000000000003	-139.067795130823
16.16359186172485	81.85620029619916	-0.7	0.0500000000000003	66.35620029619918	-74.83185440563041	-1.039076492892845e-12	80.38799999999991	-84.66000000000004	5.05043721578303e-13	2.071017320375504e-12	0	-114.0000000000003	-139.067795130823
16.17456793785095	81.85577896349997	-0.7	0.0500000000000003	66.35577896349997	-74.75955866177218	-1.039076492892845e-12	80.38799999999991	-84.66000000000004	5.05043721578303e-13	2.071017320375504e-12	0	-114.0000000000003	-139.067795130823
16.18356990814209	81.85589673432671	-0.7	0.0500000000000003	66.35589673432672	-74.69352076683589	-1.039076492892845e-12	80.38799999999991	-84.66000000000004	5.05043721578303e-13	2.071017320375504e-12	0	-114.0000000000003	-139.067795130823
16.19355583190918	81.85631959280578	-0.7	0.0500000000000003	66.35631959280579	-74.5983411474794	-1.039076492892845e-12	80.38799999999991	-84.66000000000004	5.05043721578303e-13	2.071017320375504e-12	0	-114.0000000000003	-139.067795130823
16.19856190681458	81.84341677892684	-0.7	0.0500000000000003	66.34341677892685	-74.5695446985284	-1.039076492892845e-12	80.38799999999991	-84.66000000000004	5.05043721578303e-13	2.071017320375504e-12	0	-114.0000000000003	-139.067795130823
16.20660185813904	81.83590424321407	-0.7	0.0500000000000003	66.33590424321409	-74.48376524316298	-1.039076492892845e-12	80.38799999999991	-84.66000000000004	5.05043721578303e-13	2.071017320375504e-12	0	-114.0000000000003	-139.067795130823
16.21056890487671	81.80089338980373	-0.7	0.0500000000000003	66.30089338980373	-74.41310109884451	-1.039076492892845e-12	80.38799999999991	-84.66000000000004	5.05043721578303e-13	2.071017320375504e-12	0	-114.0000000000003	-139.067795130823
16.21655488014221	81.7983675187936	-0.7	0.0500000000000003	66.29836751879361	-74.31816485866732	-1.039076492892845e-12	80.38799999999991	-84.66000000000004	5.05043721578303e-13	2.071017320375504e-12	0	-114.0000000000003	-139.067795130823
16.22157311439514	81.69043537891575	-0.7	0.0500000000000003	66.19043537891577	-74.09771784851392	-1.039076492892845e-12	80.38799999999991	-84.66000000000004	5.05043721578303e-13	2.071017320375504e-12	0	-114.0000000000003	-139.067795130823
16.22555994987488	81.69213598671405	-0.7	0.0500000000000003	66.19213598671406	-74.01811834705039	-1.039076492892845e-12	80.38799999999991	-84.66000000000004	5.05043721578303e-13	2.071017320375504e-12	0	-114.0000000000003	-139.067795130823
16.23556399345398	81.69173572283127	-0.7	0.0500000000000003	66.19173572283127	-73.90440389934047	-1.039076492892845e-12	80.38799999999991	-84.66000000000004	5.05043721578303e-13	2.071017320375504e-12	0	-114.0000000000003	-139.067795130823
